<mxfile host="app.diagrams.net" agent="Mozilla/5.0 (Macintosh; Intel Mac OS X 10_15_7) AppleWebKit/605.1.15 (KHTML, like Gecko) Version/18.5 Safari/605.1.15" version="28.0.4">
  <diagram name="第 1 页" id="or1H6w1kSN3DtoS8Jrvq">
    <mxGraphModel dx="1410" dy="791" grid="1" gridSize="10" guides="1" tooltips="1" connect="1" arrows="1" fold="1" page="1" pageScale="1" pageWidth="827" pageHeight="1169" math="0" shadow="0">
      <root>
        <mxCell id="0" />
        <mxCell id="1" parent="0" />
        <mxCell id="ZXN4FGuWoJyQtscpt3rk-1" value="PassiveMonitoringClient" style="rounded=1;whiteSpace=wrap;html=1;" vertex="1" parent="1">
          <mxGeometry x="430" y="220" width="170" height="40" as="geometry" />
        </mxCell>
        <mxCell id="ZXN4FGuWoJyQtscpt3rk-2" value="MeasureClient" style="rounded=1;whiteSpace=wrap;html=1;" vertex="1" parent="1">
          <mxGeometry x="430" y="270" width="170" height="40" as="geometry" />
        </mxCell>
        <mxCell id="ZXN4FGuWoJyQtscpt3rk-3" value="ExerciseClient" style="rounded=1;whiteSpace=wrap;html=1;" vertex="1" parent="1">
          <mxGeometry x="430" y="320" width="170" height="40" as="geometry" />
        </mxCell>
        <mxCell id="ZXN4FGuWoJyQtscpt3rk-4" value="PassiveMonitoringApiService" style="rounded=1;whiteSpace=wrap;html=1;" vertex="1" parent="1">
          <mxGeometry x="640" y="220" width="170" height="40" as="geometry" />
        </mxCell>
        <mxCell id="ZXN4FGuWoJyQtscpt3rk-5" value="MeasureApiService" style="rounded=1;whiteSpace=wrap;html=1;" vertex="1" parent="1">
          <mxGeometry x="640" y="270" width="170" height="40" as="geometry" />
        </mxCell>
        <mxCell id="ZXN4FGuWoJyQtscpt3rk-6" value="ExerciseApiService" style="rounded=1;whiteSpace=wrap;html=1;" vertex="1" parent="1">
          <mxGeometry x="640" y="320" width="170" height="40" as="geometry" />
        </mxCell>
        <mxCell id="ZXN4FGuWoJyQtscpt3rk-7" value="UI" style="rounded=1;whiteSpace=wrap;html=1;" vertex="1" parent="1">
          <mxGeometry x="20" y="60" width="120" height="60" as="geometry" />
        </mxCell>
        <mxCell id="ZXN4FGuWoJyQtscpt3rk-8" value="UiState" style="rounded=1;whiteSpace=wrap;html=1;" vertex="1" parent="1">
          <mxGeometry x="20" y="180" width="120" height="60" as="geometry" />
        </mxCell>
        <mxCell id="ZXN4FGuWoJyQtscpt3rk-9" value="UiState" style="rounded=1;whiteSpace=wrap;html=1;" vertex="1" parent="1">
          <mxGeometry x="20" y="300" width="120" height="60" as="geometry" />
        </mxCell>
        <mxCell id="ZXN4FGuWoJyQtscpt3rk-10" value="&lt;h1 style=&quot;margin-top: 0px;&quot;&gt;&lt;span style=&quot;font-size: 12px; font-weight: normal;&quot;&gt;The dependency library provided by Google (androidx. health: health-services-client) includes ExerciseCloud, PassiveMonitoringCloud, and MeasureClient&lt;/span&gt;&lt;br&gt;&lt;/h1&gt;" style="text;html=1;whiteSpace=wrap;overflow=hidden;rounded=0;fillColor=#fff2cc;strokeColor=#d6b656;" vertex="1" parent="1">
          <mxGeometry x="280" y="460" width="860" height="50" as="geometry" />
        </mxCell>
        <mxCell id="ZXN4FGuWoJyQtscpt3rk-11" value="&lt;h1 style=&quot;margin-top: 0px;&quot;&gt;WHS Backend&lt;/h1&gt;&lt;p&gt;WearOS system service (com.google.android.earable.healthservices), communicates with WHS client. Including PassiveMonitoringApiService, MeasureApiService, ExerciseAiService, etc.&amp;nbsp;&lt;/p&gt;" style="text;html=1;whiteSpace=wrap;overflow=hidden;rounded=0;" vertex="1" parent="1">
          <mxGeometry x="220" y="660" width="290" height="120" as="geometry" />
        </mxCell>
      </root>
    </mxGraphModel>
  </diagram>
</mxfile>
